<svg xmlns="http://www.w3.org/2000/svg" xmlns:xlink="http://www.w3.org/1999/xlink" fill="none" version="1.1" width="50" height="50" viewBox="0 0 500 500"><defs><clipPath id="master_svg0_17_73"><rect x="0" y="0" width="50" height="50" rx="0"/></clipPath><clipPath id="master_svg1_18_010"><rect x="20" y="141" width="214" height="223" rx="0"/></clipPath></defs><g clip-path="url(#master_svg0_17_73)"><rect x="0" y="0" width="50" height="50" rx="0" fill="#FFFFFF" fill-opacity="0"/><g><path d="M250.5,154.9Q250.5,152.7,251.65,151.55Q252.8,150.4,255,150.4L331,150.4Q333.2,150.4,334.35,151.5Q335.5,152.6,335.5,154.9L335.5,231.1Q335.5,233.3,334.35,234.45Q333.2,235.6,331,235.6L255,235.6Q252.8,235.6,251.65,234.5Q250.5,233.4,250.5,231.1L250.5,154.9ZM329.1,156.3L256.9,156.3L256.9,229.7L329.1,229.7L329.1,156.3ZM320.2,213.2Q322.5,213.2,322.5,215.5L322.5,216.8Q322.5,219.1,320.2,219.1L265.8,219.1Q263.5,219.1,263.5,216.8L263.5,215.5Q263.5,213.2,265.8,213.2L320.2,213.2ZM293.2,168.9Q295.6,168.9,295.6,171.3L295.6,214.3Q295.6,216.7,293.2,216.7L291.8,216.7Q289.4,216.7,289.4,214.3L289.4,171.3Q289.4,168.9,291.8,168.9L293.2,168.9ZM315.8,188.4Q318,188.4,318,190.6L318,192Q318,194.2,315.8,194.2L270.3,194.2Q268.1,194.2,268.1,192L268.1,190.6Q268.1,188.4,270.3,188.4L315.8,188.4ZM318.3,166Q320.5,166,320.5,168.2L320.5,169.5Q320.5,171.8,318.3,171.8L267.7,171.8Q265.5,171.8,265.5,169.5L265.5,168.2Q265.5,166,267.7,166L318.3,166ZM308.1,198.3Q309.9,197,311.2,198.9L316,207Q317.3,208.8,315.5,210.1L314.3,210.9Q312.5,212.2,311.2,210.3L306.4,202.2Q305.1,200.4,306.9,199.1L308.1,198.3Z" fill="#27538F" fill-opacity="1"/></g><g><path d="M358.17188,172.3281L366.375,172.3281Q369.5,182.875,376.1406,215.6875L374.1875,218.4219Q384.7344,184.8281,387.0781,175.0625L390.9844,175.0625Q395.2812,176.625,407,218.0312L405.4375,212.9531Q405.4375,218.0312,416.375,177.4062L418.3281,169.2031L421.8438,171.5469Q423.7969,171.5469,426.1406,176.2344Q426.1406,179.3594,417.5469,207.875Q412.0781,228.5781,408.5625,238.3438L405.0469,237.1719Q400.75,233.2656,387.4688,187.9531L389.8125,193.8125L391.7656,189.125Q380.0469,233.2656,374.9688,237.9531Q367.9375,235.6094,363.25,205.5312L358.17188,172.3281ZM439.0312,198.1094Q452.3125,198.1094,455.0469,208.2656Q455.0469,218.0312,430.8281,222.7188L430.8281,215.2969Q432.3906,228.5781,438.25,228.1875Q442.1562,229.3594,456.2188,222.7188L455.4375,230.1406Q447.2344,237.5625,438.6406,237.5625Q421.4531,237.1719,421.8438,217.25Q424.5781,201.2344,439.0312,198.1094ZM432,213.7344L432.3906,213.7344Q441.375,213.7344,446.0625,207.0938Q446.0625,206.3125,444.5,205.9219L442.9375,205.9219Q432.3906,208.2656,432,213.7344ZM468.328,187.9531Q472.625,189.5156,473.406,193.4219L473.406,194.5938Q473.406,198.1094,470.281,198.1094L468.719,198.1094Q463.25,194.9844,463.25,188.7344Q467.156,187.9531,468.328,187.9531ZM466.375,198.1094L467.547,198.1094Q469.5,198.1094,473.406,202.0156Q470.281,212.5625,469.5,223.5Q469.109,228.1875,470.281,227.7969L474.188,226.2344L477.703,226.2344Q477.703,232.875,473.016,236.3906Q460.906,240.6875,461.688,223.8906Q462.469,210.2188,462.469,209.8281L460.906,211.3906L458.953,202.7969L466.375,198.1094Z" fill="#27538F" fill-opacity="1"/></g><g><path d="M272.2,286.7L272.2,303.3L311.6,303.3L306.9,311.1L272.2,311.1L272.2,336.5L252,336.5L252,279L313,279L308.7,286.7L272.2,286.7ZM340,329.1L358.6,329.1L354,336.4L321,336.4L321,296.1L340,296.1L340,329.1ZM377.9,336.4L358.6,336.4L358.6,329.1L358.6,296.1L377.9,296.1L377.9,336.4ZM443.1,336.2L424,336.2L424,295.9L443.1,295.9L443.1,336.2ZM405.2,303.1L405.2,336.2L385.9,336.2L385.9,295.9L424,295.9L417.3,303.1L405.2,303.1Z" fill="#E7A814" fill-opacity="1"/></g><g clip-path="url(#master_svg1_18_010)"><g><path d="M160.2710865234375,329.19731796875C160.2710865234375,325.35321796875,157.2804865234375,322.23681796875,153.5914865234375,322.23691796875C157.2804865234375,322.23681796875,160.2710865234375,319.12051796875,160.2710865234375,315.27638796875C160.2710865234375,311.43221796875,157.2804865234375,308.31590467695,153.5914865234375,308.31591796875L100.1549765234375,308.31591796875C96.4659565234375,308.31590467695,93.4754086734375,311.43221796875,93.4754086734375,315.27638796875C93.4754086734375,319.12051796875,96.4659565234375,322.23681796875,100.1549765234375,322.23691796875C96.4659565234375,322.23681796875,93.4754086734375,325.35321796875,93.4754086734375,329.19731796875C93.4754086734375,333.04151796875,96.4659565234375,336.15781796875,100.1549765234375,336.15781796875C96.4623565234375,336.15251796875,93.4661865234375,339.27041796875,93.4661865234375,343.11831796875C93.4661865234375,346.96621796875,96.4623565234375,350.08411796875,100.1549765234375,350.07881796875L108.0635865234375,350.07881796875C110.8288865234375,358.16691796875,118.1697865234375,363.99981796875,126.8732865234375,363.99981796875C135.5766865234375,363.99981796875,142.9175865234375,358.16691796875,145.6828865234375,350.07881796875L153.5914865234375,350.07881796875C157.28418652343748,350.08411796875,160.2802865234375,346.96621796875,160.2802865234375,343.11831796875C160.2802865234375,339.27041796875,157.2840865234375,336.15251796875,153.5914865234375,336.15781796875C157.2804865234375,336.15781796875,160.2710865234375,333.04151796875,160.2710865234375,329.19731796875Z" fill="#27538F" fill-opacity="1"/></g><g><path d="M126.8726609375,141.26455688476562C86.2943609375,141.26455688476562,53.3974609375,175.5449568847656,53.3974609375,217.8298568847656C53.3974609375,245.6715568847656,73.4361609375,273.51355688476565,93.4748609375,301.35555688476563L160.2704609375,301.35555688476563C180.3094609375,273.51355688476565,200.3484609375,245.6715568847656,200.3484609375,217.8298568847656C200.3484609375,175.5449568847656,167.4514609375,141.26455929910563,126.8726609375,141.26455688476562Z" fill="#124A97" fill-opacity="1"/></g><g><path d="M100.15466765625,322.237091328125L153.59119765625002,322.237091328125C157.28019765625,322.237081328125,160.27079765625,319.120781328125,160.27079765625,315.276611328125L93.47509765625,315.276611328125C93.47509127855,319.120771328125,96.46563765625,322.237081328125,100.15466765625,322.237091328125ZM100.15466765625,336.158011328125L153.59119765625002,336.158011328125C157.28019765625,336.158011328125,160.27079765625,333.041711328125,160.27079765625,329.197611328125L93.47509765625,329.197611328125C93.47509127855,333.041711328125,96.46563765625,336.158011328125,100.15466765625,336.158011328125ZM100.15466765625,350.079011328125L153.59119765625002,350.079011328125C157.28019765625,350.079011328125,160.27079765625,346.962711328125,160.27079765625,343.118511328125L93.47509765625,343.118511328125C93.47510403395,346.962711328125,96.46564765625,350.079011328125,100.15466765625,350.079011328125Z" fill="#FAF8F4" fill-opacity="1"/></g><g><path d="M126.8728732421875,287.4348724609375C104.1222732421875,287.4348724609375,83.4957732421875,278.2400724609375,68.0125732421875,263.3167857527375C75.2465432421875,275.9918724609375,84.3507732421875,288.6738724609375,93.4750732421875,301.3558724609375L160.2707732421875,301.3558724609375C169.3945732421875,288.67377246093747,178.4995732421875,275.9918724609375,185.7335732421875,263.3167724609375C170.2495732421875,278.2400724609375,149.6235732421875,287.4348724609375,126.8728732421875,287.4348724609375Z" fill="#FAF8F4" fill-opacity="1"/></g><g><path d="M133.39855791015626,176.88144868164062C133.42525791015623,176.60304868164062,133.55215791015624,176.35944868164063,133.55215791015624,176.06714868164062L133.55215791015624,169.10662868164061C133.55215791015624,165.26246868164063,130.56165791015624,162.14614868164062,126.87265791015625,162.14614868164062C123.18355791015625,162.14614868164062,120.19305791015626,165.26246868164063,120.19305791015626,169.10662868164061L120.19305791015626,176.06714868164062C120.19305791015626,176.35944868164063,120.31995791015625,176.60304868164062,120.34665791015625,176.88144868164062C108.76432791015625,179.5473486816406,100.15436428785625,189.03444868164064,100.15436428785625,200.42884868164063C100.15436428785625,213.88344868164063,112.11745791015625,224.79054868164062,126.87265791015625,224.79054868164062C134.24685791015625,224.79054868164062,140.23175791015626,229.46794868164062,140.23175791015626,235.23124868164064C140.23175791015626,240.99454868164062,134.24685791015625,245.67194868164063,126.87265791015625,245.67194868164063C119.49835791015624,245.67194868164063,113.51345791015625,240.99454868164062,113.51345791015625,235.23124868164064C113.51345791015625,231.38704868164064,110.52295791015625,228.2707486816406,106.83392791015625,228.2707486816406C103.14489791015625,228.2707486816406,100.15435153245625,231.38704868164064,100.15435791015625,235.23124868164064C100.15435791015625,246.56984868164062,108.69084791015625,256.0152486816406,120.19305791015626,258.72984868164065L120.19305791015626,266.5531486816406C120.18945791015625,270.40014868164064,123.18105791015626,273.5211486816406,126.87265791015625,273.5211486816406C130.56415791015624,273.5211486816406,133.55575791015625,270.40014868164064,133.55215791015624,266.5531486816406L133.55215791015624,258.72984868164065C145.05445791015626,256.0152486816406,153.59085791015625,246.56984868164062,153.59085791015625,235.23124868164064C153.59085791015625,221.7766486816406,141.62775791015625,210.86954868164062,126.87265791015625,210.86954868164062C119.49835791015624,210.86954868164062,113.51345791015625,206.19204868164064,113.51345791015625,200.42884868164063C113.51345791015625,194.66554868164062,119.49835791015624,189.98804868164063,126.87265791015625,189.98804868164063C134.24685791015625,189.98804868164063,140.23175791015626,194.66554868164062,140.23175791015626,200.42884868164063C140.22665791015623,204.27674868164064,143.21865791015625,207.39894868164063,146.91135791015626,207.39894868164063C150.60395791015625,207.39894868164063,153.59595791015624,204.27674868164064,153.59085791015625,200.42884868164063C153.59085791015625,189.03444868164064,144.98095791015623,179.5473486816406,133.39855791015626,176.88144868164062Z" fill="#FFC94A" fill-opacity="1"/></g><g><path d="M40.0387,210.86932041015626L26.67957,210.86932041015626C22.99055,210.86932041015626,20,213.98562041015623,20,217.82982041015623C20,221.67392041015626,22.99054,224.79032041015626,26.67957,224.79032041015626L40.0387,224.79032041015626C43.7277,224.79032041015626,46.7183,221.67392041015626,46.7183,217.82982041015623C46.7183,213.98562041015623,43.7277,210.86932041015626,40.0387,210.86932041015626ZM57.8798,273.20092041015624L47.954,282.5139204101563C45.125299999999996,285.06392041015624,44.8577,289.5379204101563,47.3607,292.4349204101562C49.8637,295.33092041015624,54.1614,295.5219204101562,56.8913,292.85692041015625L66.81710000000001,283.54392041015626C69.4718,280.9519204101563,69.6483,276.62392041015624,67.21430000000001,273.80692041015624C64.7803,270.9899204101563,60.6306,270.71992041015625,57.8798,273.20092041015624ZM227.067,210.86932041015626L213.707,210.86932041015626C210.018,210.86932041015626,207.028,213.98562041015623,207.028,217.82982041015623C207.028,221.67392041015626,210.018,224.79032041015626,213.707,224.79032041015626L227.067,224.79032041015626C230.756,224.79032041015626,233.746,221.67392041015626,233.746,217.82982041015623C233.746,213.98562041015623,230.756,210.86932041015626,227.067,210.86932041015626ZM195.873,273.2069204101563C193.133,270.63292041015626,188.908,270.8629204101562,186.441,273.72292041015623C183.967,276.57592041015624,184.188,280.98192041015625,186.936,283.5509204101562L196.855,292.86392041015625C199.596,295.43792041015627,203.82,295.20792041015625,206.29,292.35192041015625C208.76,289.49592041015626,208.54,285.0939204101562,205.799,282.52092041015624L195.873,273.2069204101563ZM195.88,162.45912041015626L205.799,153.13902041015626C208.544,150.56856041015624,208.763,146.16268041015624,206.286,143.31086041015624C203.82,140.45161041015626,199.595,140.22086841015624,196.855,142.79578041015625L186.936,152.11582041015626C184.192,154.68622041015624,183.97,159.08902041015625,186.441,161.94412041015624C188.913,164.79792041015625,193.128,165.02752041015626,195.88,162.45912041015626ZM57.8732,162.45222041015626C60.624,164.93242041015625,64.7736,164.66302041015626,67.2076,161.84602041015626C69.6417,159.02912041015625,69.4651,154.70042041015626,66.8104,152.10892041015626L56.8779,142.79578041015625C54.1214,140.37575741015624,50.0195,140.67118241015626,47.608599999999996,143.46337041015624C45.1978,146.25555041015625,45.3477,150.53732041015624,47.9473,153.13902041015626L57.8732,162.45222041015626Z" fill="#124A97" fill-opacity="1"/></g></g></g></svg>